<svg xmlns="http://www.w3.org/2000/svg">
<defs>
<font
       id="EmbeddedFont_1"
       horiz-adv-x="2048"
       horiz-origin-x="0"
       horiz-origin-y="0"
       vert-origin-x="45"
       vert-origin-y="90"
       vert-adv-y="90"><font-face
         font-family="Arial embedded"
         units-per-em="2048"
         font-weight="normal"
         font-style="normal"
         ascent="1852"
         descent="450"
         id="font-face12" /><missing-glyph
         horiz-adv-x="2048"
         d="M 0,0 L 2047,0 2047,2047 0,2047 0,0 Z"
         id="missing-glyph14" /><glyph
         unicode="u"
         horiz-adv-x="874"
         d="M 314,1082 L 314,396 C 314,343 318,299 326,264 333,229 346,200 363,179 380,157 403,142 432,133 460,124 495,119 537,119 580,119 618,127 653,142 687,157 716,178 741,207 765,235 784,270 797,312 810,353 817,401 817,455 L 817,1082 997,1082 997,231 C 997,208 997,185 998,160 998,135 998,111 999,89 1000,66 1000,47 1001,31 1002,15 1002,5 1003,0 L 833,0 C 832,3 832,12 831,27 830,42 830,59 829,78 828,97 827,116 826,136 825,155 825,172 825,185 L 822,185 C 805,154 786,125 765,100 744,75 720,53 693,36 666,18 634,4 599,-6 564,-15 523,-20 476,-20 416,-20 364,-13 321,2 278,17 242,39 214,70 186,101 166,140 153,188 140,236 133,294 133,361 L 133,1082 314,1082 Z"
         id="glyph16" /><glyph
         unicode="r"
         horiz-adv-x="530"
         d="M 142,0 L 142,830 C 142,853 142,876 142,900 141,923 141,946 140,968 139,990 139,1011 138,1030 137,1049 137,1067 136,1082 L 306,1082 C 307,1067 308,1049 309,1030 310,1010 311,990 312,969 313,948 313,929 314,910 314,891 314,874 314,861 L 318,861 C 331,902 344,938 359,969 373,999 390,1024 409,1044 428,1063 451,1078 478,1088 505,1097 537,1102 575,1102 590,1102 604,1101 617,1099 630,1096 641,1094 648,1092 L 648,927 C 636,930 622,933 606,935 590,936 572,937 552,937 511,937 476,928 447,909 418,890 394,865 376,832 357,799 344,759 335,714 326,668 322,618 322,564 L 322,0 142,0 Z"
         id="glyph18" /><glyph
         unicode="n"
         horiz-adv-x="874"
         d="M 825,0 L 825,686 C 825,739 821,783 814,818 806,853 793,882 776,904 759,925 736,941 708,950 679,959 644,963 602,963 559,963 521,956 487,941 452,926 423,904 399,876 374,847 355,812 342,771 329,729 322,681 322,627 L 322,0 142,0 142,851 C 142,874 142,898 142,923 141,948 141,971 140,994 139,1016 139,1035 138,1051 137,1067 137,1077 136,1082 L 306,1082 C 307,1079 307,1070 308,1055 309,1040 310,1024 311,1005 312,986 312,966 313,947 314,927 314,910 314,897 L 317,897 C 334,928 353,957 374,982 395,1007 419,1029 446,1047 473,1064 505,1078 540,1088 575,1097 616,1102 663,1102 723,1102 775,1095 818,1080 861,1065 897,1043 925,1012 953,981 974,942 987,894 1000,845 1006,788 1006,721 L 1006,0 825,0 Z"
         id="glyph20" /><glyph
         unicode="m"
         horiz-adv-x="1457"
         d="M 768,0 L 768,686 C 768,739 765,783 758,818 751,853 740,882 725,904 709,925 688,941 663,950 638,959 607,963 570,963 532,963 498,956 467,941 436,926 410,904 389,876 367,847 350,812 339,771 327,729 321,681 321,627 L 321,0 142,0 142,851 C 142,874 142,898 142,923 141,948 141,971 140,994 139,1016 139,1035 138,1051 137,1067 137,1077 136,1082 L 306,1082 C 307,1079 307,1070 308,1055 309,1040 310,1024 311,1005 312,986 312,966 313,947 314,927 314,910 314,897 L 317,897 C 333,928 350,957 369,982 388,1007 410,1029 435,1047 460,1064 488,1078 521,1088 553,1097 590,1102 633,1102 715,1102 780,1086 828,1053 875,1020 908,968 927,897 L 930,897 C 946,928 964,957 984,982 1004,1007 1027,1029 1054,1047 1081,1064 1111,1078 1144,1088 1177,1097 1215,1102 1258,1102 1313,1102 1360,1095 1400,1080 1439,1065 1472,1043 1497,1012 1522,981 1541,942 1553,894 1565,845 1571,788 1571,721 L 1571,0 1393,0 1393,686 C 1393,739 1390,783 1383,818 1376,853 1365,882 1350,904 1334,925 1313,941 1288,950 1263,959 1232,963 1195,963 1157,963 1123,956 1092,942 1061,927 1035,906 1014,878 992,850 975,815 964,773 952,731 946,682 946,627 L 946,0 768,0 Z"
         id="glyph22" /><glyph
         unicode="e"
         horiz-adv-x="980"
         d="M 276,503 C 276,446 282,394 294,347 305,299 323,258 348,224 372,189 403,163 441,144 479,125 525,115 578,115 656,115 719,131 766,162 813,193 844,233 861,281 L 1019,236 C 1008,206 992,176 972,146 951,115 924,88 890,64 856,39 814,19 763,4 712,-12 650,-20 578,-20 418,-20 296,28 213,123 129,218 87,360 87,548 87,649 100,735 125,806 150,876 185,933 229,977 273,1021 324,1053 383,1073 442,1092 504,1102 571,1102 662,1102 738,1087 799,1058 860,1029 909,988 946,937 983,885 1009,824 1025,754 1040,684 1048,608 1048,527 L 1048,503 276,503 Z M 862,641 C 852,755 823,838 775,891 727,943 658,969 568,969 538,969 507,964 474,955 441,945 410,928 382,903 354,878 330,845 311,803 292,760 281,706 278,641 L 862,641 Z"
         id="glyph24" /><glyph
         unicode="b"
         horiz-adv-x="953"
         d="M 1053,546 C 1053,169 920,-20 655,-20 573,-20 505,-5 451,25 396,54 352,102 318,168 L 316,168 C 316,151 316,133 315,114 314,95 313,78 312,62 311,46 310,32 309,21 308,10 307,3 306,0 L 132,0 C 133,6 133,16 134,31 135,45 135,62 136,82 137,102 137,124 138,148 138,172 138,197 138,223 L 138,1484 318,1484 318,1061 C 318,1041 318,1022 318,1004 317,985 317,969 316,955 315,938 315,923 314,908 L 318,908 C 351,977 396,1027 451,1057 506,1087 574,1102 655,1102 792,1102 892,1056 957,964 1021,872 1053,733 1053,546 Z M 864,540 C 864,615 859,679 850,732 841,785 826,829 805,864 784,898 758,923 726,939 694,955 655,963 609,963 562,963 520,955 484,940 447,925 417,900 393,866 368,832 350,787 337,732 324,677 318,609 318,529 318,452 324,387 337,334 350,281 368,239 393,206 417,173 447,149 483,135 519,120 560,113 607,113 651,113 689,121 721,136 753,151 780,176 801,210 822,244 838,288 849,343 859,397 864,463 864,540 Z"
         id="glyph26" /><glyph
         unicode="&gt;"
         horiz-adv-x="1033"
         d="M 101,154 L 101,307 959,674 101,1040 101,1194 1096,776 1096,571 101,154 Z"
         id="glyph28" /><glyph
         unicode="&lt;"
         horiz-adv-x="1033"
         d="M 101,571 L 101,776 1096,1194 1096,1040 238,674 1096,307 1096,154 101,571 Z"
         id="glyph30" /><glyph
         unicode="6"
         horiz-adv-x="980"
         d="M 1049,461 C 1049,390 1039,326 1020,267 1000,208 971,157 933,115 894,72 847,39 790,16 733,-8 668,-20 594,-20 512,-20 440,-4 379,27 318,58 267,104 226,163 185,222 155,294 135,380 114,465 104,563 104,672 104,797 116,907 139,1002 162,1097 195,1176 238,1239 281,1302 334,1350 397,1382 459,1414 529,1430 608,1430 656,1430 701,1425 743,1415 785,1405 823,1389 858,1367 892,1344 922,1315 948,1278 974,1241 995,1196 1010,1143 L 838,1112 C 819,1173 790,1217 749,1244 708,1271 660,1284 606,1284 557,1284 512,1272 472,1249 432,1226 398,1191 370,1145 342,1098 321,1040 306,970 291,900 283,818 283,725 316,786 362,832 421,864 480,895 548,911 625,911 689,911 747,901 799,880 851,859 896,830 933,791 970,752 998,704 1019,649 1039,593 1049,530 1049,461 Z M 866,453 C 866,502 860,546 848,585 836,624 818,658 794,686 770,713 740,735 705,750 670,765 629,772 582,772 549,772 516,767 483,758 450,748 420,732 393,711 366,689 344,660 327,625 310,590 301,547 301,496 301,444 308,396 321,351 334,306 354,266 379,233 404,200 434,173 469,154 504,135 544,125 588,125 631,125 670,133 705,148 739,163 768,184 792,213 816,241 834,275 847,316 860,357 866,402 866,453 Z"
         id="glyph32" /><glyph
         unicode="3"
         horiz-adv-x="1006"
         d="M 1049,389 C 1049,324 1039,267 1018,216 997,165 966,123 926,88 885,53 835,26 776,8 716,-11 648,-20 571,-20 484,-20 410,-9 351,13 291,34 242,63 203,99 164,134 135,175 116,221 97,266 84,313 78,362 L 264,379 C 269,342 279,308 294,277 308,246 327,220 352,198 377,176 407,159 443,147 479,135 522,129 571,129 662,129 733,151 785,196 836,241 862,307 862,395 862,447 851,489 828,521 805,552 776,577 742,595 707,612 670,624 630,630 589,636 552,639 518,639 L 416,639 416,795 514,795 C 548,795 583,799 620,806 657,813 690,825 721,844 751,862 776,887 796,918 815,949 825,989 825,1038 825,1113 803,1173 759,1217 714,1260 648,1282 561,1282 482,1282 418,1262 369,1221 320,1180 291,1123 283,1049 L 102,1063 C 109,1125 126,1179 153,1225 180,1271 214,1309 255,1340 296,1370 342,1393 395,1408 448,1423 504,1430 563,1430 642,1430 709,1420 766,1401 823,1381 869,1354 905,1321 941,1287 968,1247 985,1202 1002,1157 1010,1108 1010,1057 1010,1016 1004,977 993,941 982,905 964,873 940,844 916,815 886,791 849,770 812,749 767,734 715,723 L 715,719 C 772,713 821,700 863,681 905,661 940,636 967,607 994,578 1015,544 1029,507 1042,470 1049,430 1049,389 Z"
         id="glyph34" /><glyph
         unicode="2"
         horiz-adv-x="954"
         d="M 103,0 L 103,127 C 137,205 179,274 228,334 277,393 328,447 382,496 436,544 490,589 543,630 596,671 643,713 686,754 729,795 763,839 790,884 816,929 829,981 829,1038 829,1078 823,1113 811,1144 799,1174 782,1199 759,1220 736,1241 709,1256 678,1267 646,1277 611,1282 572,1282 536,1282 502,1277 471,1267 439,1257 411,1242 386,1222 361,1202 341,1177 326,1148 310,1118 300,1083 295,1044 L 111,1061 C 117,1112 131,1159 153,1204 175,1249 205,1288 244,1322 283,1355 329,1382 384,1401 438,1420 501,1430 572,1430 642,1430 704,1422 759,1405 814,1388 860,1364 898,1331 935,1298 964,1258 984,1210 1004,1162 1014,1107 1014,1044 1014,997 1006,952 989,909 972,866 949,826 921,787 892,748 859,711 822,675 785,639 746,604 705,570 664,535 623,501 582,468 541,434 502,400 466,366 429,332 397,298 368,263 339,228 317,191 301,153 L 1036,153 1036,0 103,0 Z"
         id="glyph36" /><glyph
         unicode="1"
         horiz-adv-x="927"
         d="M 156,0 L 156,153 515,153 515,1237 197,1010 197,1180 530,1409 696,1409 696,153 1039,153 1039,0 156,0 Z"
         id="glyph38" /><glyph
         unicode="0"
         horiz-adv-x="980"
         d="M 1059,705 C 1059,570 1046,456 1021,364 995,271 960,197 916,140 871,83 819,42 759,17 699,-8 635,-20 567,-20 498,-20 434,-8 375,17 316,42 264,82 221,139 177,196 143,270 118,363 93,455 80,569 80,705 80,847 93,965 118,1058 143,1151 177,1225 221,1280 265,1335 317,1374 377,1397 437,1419 502,1430 573,1430 640,1430 704,1419 763,1397 822,1374 873,1335 917,1280 961,1225 996,1151 1021,1058 1046,965 1059,847 1059,705 Z M 876,705 C 876,817 869,910 856,985 843,1059 823,1118 797,1163 771,1207 739,1238 702,1257 664,1275 621,1284 573,1284 522,1284 478,1275 439,1256 400,1237 368,1206 342,1162 315,1117 295,1058 282,984 269,909 262,816 262,705 262,597 269,506 283,432 296,358 316,299 343,254 369,209 401,176 439,157 477,137 520,127 569,127 616,127 659,137 697,157 735,176 767,209 794,254 820,299 840,358 855,432 869,506 876,597 876,705 Z"
         id="glyph40" /><glyph
         unicode="/"
         horiz-adv-x="583"
         d="M 0,-20 L 411,1484 569,1484 162,-20 0,-20 Z"
         id="glyph42" /></font></defs><defs
     id="defs44"><font
       id="EmbeddedFont_2"
       horiz-adv-x="2048"
       horiz-origin-x="0"
       horiz-origin-y="0"
       vert-origin-x="45"
       vert-origin-y="90"
       vert-adv-y="90"><font-face
         font-family="Calibri embedded"
         units-per-em="2048"
         font-weight="normal"
         font-style="normal"
         ascent="1905"
         descent="503"
         id="font-face47" /><missing-glyph
         horiz-adv-x="2048"
         d="M 0,0 L 2047,0 2047,2047 0,2047 0,0 Z"
         id="missing-glyph49" /><glyph
         unicode="…"
         horiz-adv-x="1615"
         d="M 918,254 L 1130,254 1130,0 918,0 918,254 Z M 1599,254 L 1812,254 1812,0 1599,0 1599,254 Z M 236,254 L 449,254 449,0 236,0 236,254 Z"
         id="glyph51" /><glyph
         unicode="x"
         horiz-adv-x="1112"
         d="M 1124,1120 L 719,575 1145,0 928,0 602,440 276,0 59,0 494,586 96,1120 313,1120 610,721 907,1120 1124,1120 Z"
         id="glyph53" /><glyph
         unicode="w"
         horiz-adv-x="1510"
         d="M 86,1120 L 270,1120 500,246 729,1120 946,1120 1176,246 1405,1120 1589,1120 1296,0 1079,0 838,918 596,0 379,0 86,1120 Z"
         id="glyph55" /><glyph
         unicode="v"
         horiz-adv-x="1112"
         d="M 61,1120 L 256,1120 606,180 956,1120 1151,1120 731,0 481,0 61,1120 Z"
         id="glyph57" /><glyph
         unicode="u"
         horiz-adv-x="953"
         d="M 174,442 L 174,1120 358,1120 358,449 C 358,343 379,264 420,211 461,158 523,131 606,131 705,131 784,163 842,226 899,289 928,376 928,485 L 928,1120 1112,1120 1112,0 928,0 928,172 C 883,104 832,54 773,21 714,-12 645,-29 567,-29 438,-29 341,11 274,91 207,171 174,288 174,442 Z "
         id="glyph59" /><glyph
         unicode="t"
         horiz-adv-x="715"
         d="M 375,1438 L 375,1120 754,1120 754,977 375,977 375,369 C 375,278 388,219 413,193 438,167 488,154 565,154 L 754,154 754,0 565,0 C 423,0 325,27 271,80 217,133 190,229 190,369 L 190,977 55,977 55,1120 190,1120 190,1438 375,1438 Z"
         id="glyph61" /><glyph
         unicode="s"
         horiz-adv-x="874"
         d="M 907,1087 L 907,913 C 855,940 801,960 745,973 689,986 631,993 571,993 480,993 411,979 366,951 320,923 297,881 297,825 297,782 313,749 346,725 379,700 444,677 543,655 L 606,641 C 737,613 830,574 885,523 940,472 967,400 967,309 967,205 926,123 844,62 761,1 648,-29 504,-29 444,-29 382,-23 317,-12 252,0 183,18 111,41 L 111,231 C 179,196 246,169 312,152 378,134 443,125 508,125 595,125 661,140 708,170 755,199 778,241 778,295 778,345 761,383 728,410 694,437 620,462 506,487 L 442,502 C 328,526 246,563 195,613 144,662 119,730 119,817 119,922 156,1004 231,1061 306,1118 412,1147 549,1147 617,1147 681,1142 741,1132 801,1122 856,1107 907,1087 Z"
         id="glyph63" /><glyph
         unicode="r"
         horiz-adv-x="663"
         d="M 842,948 C 821,960 799,969 775,975 750,980 723,983 694,983 590,983 510,949 455,882 399,814 371,717 371,590 L 371,0 186,0 186,1120 371,1120 371,946 C 410,1014 460,1065 522,1098 584,1131 659,1147 748,1147 761,1147 775,1146 790,1145 805,1143 822,1140 841,1137 L 842,948 Z"
         id="glyph65" /><glyph
         unicode="p"
         horiz-adv-x="1007"
         d="M 371,168 L 371,-426 186,-426 186,1120 371,1120 371,950 C 410,1017 459,1066 518,1099 577,1131 647,1147 729,1147 865,1147 976,1093 1061,985 1146,877 1188,735 1188,559 1188,383 1146,241 1061,133 976,25 865,-29 729,-29 647,-29 577,-13 518,20 459,52 410,101 371,168 Z M 997,559 C 997,694 969,801 914,878 858,955 781,993 684,993 587,993 510,955 455,878 399,801 371,694 371,559 371,424 399,318 455,241 510,164 587,125 684,125 781,125 858,164 914,241 969,318 997,424 997,559 Z"
         id="glyph67" /><glyph
         unicode="o"
         horiz-adv-x="1033"
         d="M 627,991 C 528,991 450,953 393,876 336,799 307,693 307,559 307,425 336,320 393,243 450,166 528,127 627,127 725,127 803,166 860,243 917,320 946,426 946,559 946,692 917,797 860,875 803,952 725,991 627,991 Z M 627,1147 C 787,1147 913,1095 1004,991 1095,887 1141,743 1141,559 1141,376 1095,232 1004,128 913,23 787,-29 627,-29 466,-29 341,23 250,128 159,232 113,376 113,559 113,743 159,887 250,991 341,1095 466,1147 627,1147 Z"
         id="glyph69" /><glyph
         unicode="n"
         horiz-adv-x="954"
         d="M 1124,676 L 1124,0 940,0 940,670 C 940,776 919,855 878,908 837,961 775,987 692,987 593,987 514,955 457,892 400,829 371,742 371,633 L 371,0 186,0 186,1120 371,1120 371,946 C 415,1013 467,1064 527,1097 586,1130 655,1147 733,1147 862,1147 959,1107 1025,1028 1091,948 1124,831 1124,676 Z"
         id="glyph71" /><glyph
         unicode="m"
         horiz-adv-x="1642"
         d="M 1065,905 C 1111,988 1166,1049 1230,1088 1294,1127 1369,1147 1456,1147 1573,1147 1663,1106 1726,1025 1789,943 1821,827 1821,676 L 1821,0 1636,0 1636,670 C 1636,777 1617,857 1579,909 1541,961 1483,987 1405,987 1310,987 1234,955 1179,892 1124,829 1096,742 1096,633 L 1096,0 911,0 911,670 C 911,778 892,858 854,910 816,961 757,987 678,987 584,987 509,955 454,892 399,828 371,742 371,633 L 371,0 186,0 186,1120 371,1120 371,946 C 413,1015 463,1065 522,1098 581,1131 650,1147 731,1147 812,1147 882,1126 939,1085 996,1044 1038,984 1065,905 Z"
         id="glyph73" /><glyph
         unicode="l"
         horiz-adv-x="213"
         d="M 193,1556 L 377,1556 377,0 193,0 193,1556 Z"
         id="glyph75" /><glyph
         unicode="k"
         horiz-adv-x="1007"
         d="M 186,1556 L 371,1556 371,637 920,1120 1155,1120 561,596 1180,0 940,0 371,547 371,0 186,0 186,1556 Z"
         id="glyph77" /><glyph
         unicode="i"
         horiz-adv-x="213"
         d="M 193,1120 L 377,1120 377,0 193,0 193,1120 Z M 193,1556 L 377,1556 377,1323 193,1323 193,1556 Z"
         id="glyph79" /><glyph
         unicode="h"
         horiz-adv-x="954"
         d="M 1124,676 L 1124,0 940,0 940,670 C 940,776 919,855 878,908 837,961 775,987 692,987 593,987 514,955 457,892 400,829 371,742 371,633 L 371,0 186,0 186,1556 371,1556 371,946 C 415,1013 467,1064 527,1097 586,1130 655,1147 733,1147 862,1147 959,1107 1025,1028 1091,948 1124,831 1124,676 Z"
         id="glyph81" /><glyph
         unicode="f"
         horiz-adv-x="742"
         d="M 760,1556 L 760,1403 584,1403 C 518,1403 472,1390 447,1363 421,1336 408,1288 408,1219 L 408,1120 711,1120 711,977 408,977 408,0 223,0 223,977 47,977 47,1120 223,1120 223,1198 C 223,1323 252,1414 310,1471 368,1528 460,1556 586,1556 L 760,1556 Z"
         id="glyph83" /><glyph
         unicode="e"
         horiz-adv-x="1059"
         d="M 1151,606 L 1151,516 305,516 C 313,389 351,293 420,227 488,160 583,127 705,127 776,127 844,136 911,153 977,170 1043,196 1108,231 L 1108,57 C 1042,29 974,8 905,-7 836,-22 765,-29 694,-29 515,-29 374,23 270,127 165,231 113,372 113,549 113,732 163,878 262,986 361,1093 494,1147 662,1147 813,1147 932,1099 1020,1002 1107,905 1151,773 1151,606 Z M 967,659 C 966,760 938,841 883,901 828,961 755,991 664,991 561,991 479,962 418,904 356,846 320,764 311,659 L 967,659 Z"
         id="glyph85" /><glyph
         unicode="d"
         horiz-adv-x="1006"
         d="M 930,950 L 930,1556 1114,1556 1114,0 930,0 930,168 C 891,101 843,52 784,20 725,-13 654,-29 571,-29 436,-29 326,25 241,133 156,241 113,383 113,559 113,735 156,877 241,985 326,1093 436,1147 571,1147 654,1147 725,1131 784,1099 843,1066 891,1017 930,950 Z M 303,559 C 303,424 331,318 387,241 442,164 519,125 616,125 713,125 790,164 846,241 902,318 930,424 930,559 930,694 902,801 846,878 790,955 713,993 616,993 519,993 442,955 387,878 331,801 303,694 303,559 Z"
         id="glyph87" /><glyph
         unicode="c"
         horiz-adv-x="900"
         d="M 999,1077 L 999,905 C 947,934 895,955 843,970 790,984 737,991 684,991 565,991 472,953 406,878 340,802 307,696 307,559 307,422 340,316 406,241 472,165 565,127 684,127 737,127 790,134 843,149 895,163 947,184 999,213 L 999,43 C 948,19 895,1 840,-11 785,-23 726,-29 664,-29 495,-29 361,24 262,130 163,236 113,379 113,559 113,742 163,885 264,990 364,1095 501,1147 676,1147 733,1147 788,1141 842,1130 896,1118 948,1100 999,1077 Z"
         id="glyph89" /><glyph
         unicode="b"
         horiz-adv-x="1007"
         d="M 997,559 C 997,694 969,801 914,878 858,955 781,993 684,993 587,993 510,955 455,878 399,801 371,694 371,559 371,424 399,318 455,241 510,164 587,125 684,125 781,125 858,164 914,241 969,318 997,424 997,559 Z M 371,950 C 410,1017 459,1066 518,1099 577,1131 647,1147 729,1147 865,1147 976,1093 1061,985 1146,877 1188,735 1188,559 1188,383 1146,241 1061,133 976,25 865,-29 729,-29 647,-29 577,-13 518,20 459,52 410,101 371,168 L 371,0 186,0 186,1556 371,1556 371,950 Z"
         id="glyph91" /><glyph
         unicode="a"
         horiz-adv-x="980"
         d="M 702,563 C 553,563 450,546 393,512 336,478 307,420 307,338 307,273 329,221 372,183 415,144 473,125 547,125 649,125 731,161 793,234 854,306 885,402 885,522 L 885,563 702,563 Z M 1069,639 L 1069,0 885,0 885,170 C 843,102 791,52 728,20 665,-13 589,-29 498,-29 383,-29 292,3 225,68 157,132 123,218 123,326 123,452 165,547 250,611 334,675 460,707 627,707 L 885,707 885,725 C 885,810 857,875 802,922 746,968 668,991 567,991 503,991 441,983 380,968 319,953 261,930 205,899 L 205,1069 C 272,1095 338,1115 401,1128 464,1141 526,1147 586,1147 748,1147 869,1105 949,1021 1029,937 1069,810 1069,639 Z"
         id="glyph93" /><glyph
         unicode="T"
         horiz-adv-x="1297"
         d="M -6,1493 L 1257,1493 1257,1323 727,1323 727,0 524,0 524,1323 -6,1323 -6,1493 Z"
         id="glyph95" /><glyph
         unicode="S"
         horiz-adv-x="1060"
         d="M 1096,1444 L 1096,1247 C 1019,1284 947,1311 879,1329 811,1347 745,1356 682,1356 572,1356 487,1335 428,1292 368,1249 338,1189 338,1110 338,1044 358,994 398,961 437,927 512,900 623,879 L 745,854 C 896,825 1007,775 1079,703 1150,630 1186,533 1186,412 1186,267 1138,158 1041,83 944,8 801,-29 614,-29 543,-29 468,-21 389,-5 309,11 226,35 141,66 L 141,274 C 223,228 303,193 382,170 461,147 538,135 614,135 729,135 818,158 881,203 944,248 975,313 975,397 975,470 953,528 908,569 863,610 789,641 686,662 L 563,686 C 412,716 303,763 236,827 169,891 135,980 135,1094 135,1226 182,1330 275,1406 368,1482 496,1520 659,1520 729,1520 800,1514 873,1501 946,1488 1020,1469 1096,1444 Z"
         id="glyph97" /><glyph
         unicode="O"
         horiz-adv-x="1403"
         d="M 807,1356 C 660,1356 544,1301 458,1192 371,1083 328,934 328,745 328,557 371,408 458,299 544,190 660,135 807,135 954,135 1070,190 1156,299 1241,408 1284,557 1284,745 1284,934 1241,1083 1156,1192 1070,1301 954,1356 807,1356 Z M 807,1520 C 1016,1520 1184,1450 1309,1310 1434,1169 1497,981 1497,745 1497,510 1434,322 1309,182 1184,41 1016,-29 807,-29 597,-29 429,41 304,181 178,321 115,509 115,745 115,981 178,1169 304,1310 429,1450 597,1520 807,1520 Z"
         id="glyph99" /><glyph
         unicode="N"
         horiz-adv-x="1165"
         d="M 201,1493 L 473,1493 1135,244 1135,1493 1331,1493 1331,0 1059,0 397,1249 397,0 201,0 201,1493 Z"
         id="glyph101" /><glyph
         unicode="L"
         horiz-adv-x="954"
         d="M 201,1493 L 403,1493 403,170 1130,170 1130,0 201,0 201,1493 Z"
         id="glyph103" /><glyph
         unicode="F"
         horiz-adv-x="874"
         d="M 201,1493 L 1059,1493 1059,1323 403,1323 403,883 995,883 995,713 403,713 403,0 201,0 201,1493 Z"
         id="glyph105" /><glyph
         unicode="C"
         horiz-adv-x="1218"
         d="M 1319,1378 L 1319,1165 C 1251,1228 1179,1276 1102,1307 1025,1338 943,1354 856,1354 685,1354 555,1302 464,1198 373,1093 328,942 328,745 328,548 373,398 464,294 555,189 685,137 856,137 943,137 1025,153 1102,184 1179,215 1251,263 1319,326 L 1319,115 C 1248,67 1174,31 1095,7 1016,-17 932,-29 844,-29 618,-29 440,40 310,179 180,317 115,506 115,745 115,985 180,1174 310,1313 440,1451 618,1520 844,1520 933,1520 1018,1508 1097,1485 1176,1461 1250,1425 1319,1378 Z"
         id="glyph107" /><glyph
         unicode=","
         horiz-adv-x="319"
         d="M 240,254 L 451,254 451,82 287,-238 158,-238 240,82 240,254 Z"
         id="glyph109" /><glyph
         unicode=" "
         horiz-adv-x="635"
         id="glyph111" /></font></defs><defs
     id="defs113"><font
       id="EmbeddedFont_3"
       horiz-adv-x="2048"
       horiz-origin-x="0"
       horiz-origin-y="0"
       vert-origin-x="45"
       vert-origin-y="90"
       vert-adv-y="90"><font-face
         font-family="Liberation Sans embedded"
         units-per-em="2048"
         font-weight="bold"
         font-style="normal"
         ascent="1852"
         descent="450"
         id="font-face116" /><missing-glyph
         horiz-adv-x="2048"
         d="M 0,0 L 2047,0 2047,2047 0,2047 0,0 Z"
         id="missing-glyph118" /><glyph
         unicode="v"
         horiz-adv-x="1139"
         d="M 565,227 L 836,1082 1130,1082 731,0 395,0 8,1082 305,1082 565,227 Z"
         id="glyph120" /><glyph
         unicode="t"
         horiz-adv-x="662"
         d="M 420,-18 C 337,-18 274,5 229,50 184,95 162,163 162,254 L 162,892 25,892 25,1082 176,1082 264,1336 440,1336 440,1082 645,1082 645,892 440,892 440,330 C 440,277 450,239 470,214 490,189 521,176 563,176 580,176 596,177 610,180 624,183 640,186 657,190 L 657,16 C 622,5 586,-4 547,-10 508,-15 466,-18 420,-18 Z"
         id="glyph122" /><glyph
         unicode="s"
         horiz-adv-x="1006"
         d="M 1055,316 C 1055,264 1044,217 1023,176 1001,135 969,100 928,71 887,42 836,19 776,4 716,-12 648,-20 571,-20 502,-20 440,-15 385,-5 330,5 281,22 240,45 198,68 163,97 135,134 107,171 86,216 72,270 L 319,307 C 327,277 338,253 352,234 366,215 383,201 404,191 425,181 449,174 477,171 504,168 536,166 571,166 603,166 633,168 661,172 688,175 712,182 733,191 753,200 769,212 780,229 791,245 797,265 797,290 797,318 789,340 773,357 756,373 734,386 706,397 677,407 644,416 606,424 567,431 526,440 483,450 438,460 393,472 349,486 305,500 266,519 231,543 196,567 168,598 147,635 126,672 115,718 115,775 115,826 125,872 145,913 165,953 194,987 233,1016 272,1044 320,1066 377,1081 434,1096 499,1103 573,1103 632,1103 686,1098 737,1087 788,1076 833,1058 873,1035 913,1011 947,981 974,944 1001,907 1019,863 1030,811 L 781,785 C 776,811 768,833 756,850 744,867 729,880 712,890 694,900 673,907 650,911 627,914 601,916 573,916 506,916 456,908 423,891 390,874 373,845 373,805 373,780 380,761 394,746 407,731 427,719 452,710 477,700 506,692 541,685 575,678 612,669 653,659 703,648 752,636 801,622 849,607 892,588 930,563 967,538 998,505 1021,466 1044,427 1055,377 1055,316 Z"
         id="glyph124" /><glyph
         unicode="r"
         horiz-adv-x="636"
         d="M 143,0 L 143,828 C 143,851 143,876 143,902 142,928 142,953 141,977 140,1000 139,1022 138,1041 137,1060 136,1073 135,1082 L 403,1082 C 404,1074 406,1060 407,1041 408,1021 410,999 411,976 412,953 414,930 415,907 416,884 416,865 416,851 L 420,851 C 434,890 448,926 462,957 476,988 493,1014 512,1036 531,1057 553,1074 580,1086 607,1097 640,1103 679,1103 696,1103 712,1102 729,1099 745,1096 757,1092 766,1088 L 766,853 C 748,857 730,861 712,864 693,867 671,868 646,868 576,868 522,840 483,783 444,726 424,642 424,531 L 424,0 143,0 Z"
         id="glyph126" /><glyph
         unicode="p"
         horiz-adv-x="1033"
         d="M 1167,546 C 1167,464 1159,388 1143,319 1126,250 1101,190 1067,140 1033,90 990,51 938,23 885,-6 823,-20 752,-20 720,-20 688,-17 657,-10 625,-3 595,8 566,23 537,38 511,57 487,82 462,106 441,136 424,172 L 418,172 C 419,169 419,160 420,147 421,134 421,118 422,101 423,83 423,64 424,45 424,25 424,7 424,-10 L 424,-425 143,-425 143,833 C 143,888 142,938 141,981 139,1024 137,1058 135,1082 L 408,1082 C 409,1077 411,1068 413,1055 414,1042 416,1026 417,1009 418,992 418,974 419,955 420,936 420,920 420,906 L 424,906 C 458,977 505,1028 564,1059 623,1090 692,1105 770,1105 839,1105 898,1091 948,1063 998,1035 1039,996 1072,947 1104,898 1128,839 1144,771 1159,702 1167,627 1167,546 Z M 874,546 C 874,669 855,761 818,821 781,880 725,910 651,910 623,910 595,904 568,893 540,881 515,861 494,833 472,804 454,766 441,719 427,671 420,611 420,538 420,467 427,409 440,362 453,315 471,277 493,249 514,221 539,201 566,190 593,178 621,172 649,172 685,172 717,179 745,194 773,208 797,230 816,261 835,291 849,330 859,377 869,424 874,481 874,546 Z"
         id="glyph128" /><glyph
         unicode="o"
         horiz-adv-x="1113"
         d="M 1171,542 C 1171,459 1160,384 1137,315 1114,246 1079,187 1033,138 987,88 930,49 861,22 792,-6 712,-20 621,-20 533,-20 455,-6 388,21 321,48 264,87 219,136 173,185 138,245 115,314 92,383 80,459 80,542 80,623 91,697 114,766 136,834 170,893 215,943 260,993 317,1032 386,1060 455,1088 535,1102 627,1102 724,1102 807,1088 876,1060 945,1032 1001,993 1045,944 1088,894 1120,835 1141,767 1161,698 1171,623 1171,542 Z M 877,542 C 877,671 856,764 814,822 772,880 711,909 631,909 548,909 485,880 441,821 397,762 375,669 375,542 375,477 381,422 393,375 404,328 421,290 442,260 463,230 489,208 519,194 549,179 582,172 618,172 659,172 696,179 729,194 761,208 788,230 810,260 832,290 849,328 860,375 871,422 877,477 877,542 Z"
         id="glyph130" /><glyph
         unicode="n"
         horiz-adv-x="1007"
         d="M 844,0 L 844,607 C 844,649 841,688 834,723 827,758 816,788 801,813 786,838 766,857 741,871 716,885 686,892 651,892 617,892 586,885 559,870 531,855 507,833 487,806 467,778 452,745 441,707 430,668 424,626 424,580 L 424,0 143,0 143,840 C 143,863 143,887 143,912 142,937 142,960 141,983 140,1005 139,1025 138,1043 137,1060 136,1073 135,1082 L 403,1082 C 404,1074 406,1061 407,1044 408,1026 410,1006 411,985 412,964 414,942 415,921 416,900 416,882 416,867 L 420,867 C 458,950 506,1010 563,1047 620,1084 689,1103 768,1103 833,1103 889,1092 934,1071 979,1050 1015,1020 1044,983 1072,946 1092,902 1105,851 1118,800 1124,746 1124,687 L 1124,0 844,0 Z"
         id="glyph132" /><glyph
         unicode="l"
         horiz-adv-x="292"
         d="M 143,0 L 143,1484 424,1484 424,0 143,0 Z"
         id="glyph134" /><glyph
         unicode="i"
         horiz-adv-x="292"
         d="M 143,1277 L 143,1484 424,1484 424,1277 143,1277 Z M 143,0 L 143,1082 424,1082 424,0 143,0 Z"
         id="glyph136" /><glyph
         unicode="g"
         horiz-adv-x="1033"
         d="M 596,-434 C 525,-434 462,-427 408,-413 353,-398 307,-378 269,-353 230,-327 200,-296 177,-261 154,-225 138,-186 129,-143 L 410,-110 C 420,-153 442,-187 475,-212 508,-237 551,-249 604,-249 637,-249 668,-244 696,-235 723,-226 747,-210 767,-188 786,-165 802,-136 813,-99 824,-62 829,-17 829,37 829,56 829,75 829,94 829,113 829,131 830,147 831,166 831,184 831,201 L 829,201 C 796,131 751,80 692,49 633,18 562,2 481,2 412,2 353,16 304,43 254,70 213,107 180,156 147,204 123,262 108,329 92,396 84,469 84,550 84,633 92,709 109,777 126,844 151,902 186,951 220,1000 263,1037 316,1064 368,1090 430,1103 502,1103 574,1103 639,1088 696,1057 753,1026 797,977 829,908 L 834,908 C 834,922 835,938 836,957 837,975 838,993 839,1010 840,1027 842,1042 844,1055 845,1068 847,1077 848,1082 L 1114,1082 C 1113,1058 1111,1024 1110,981 1109,938 1108,888 1108,832 L 1108,33 C 1108,-46 1097,-114 1074,-173 1051,-231 1018,-279 975,-318 931,-357 877,-386 814,-405 750,-424 677,-434 596,-434 Z M 831,556 C 831,624 824,681 811,726 798,771 780,808 759,835 738,862 713,882 686,893 658,904 630,910 602,910 566,910 534,903 507,889 479,875 455,853 436,824 417,795 402,757 392,712 382,667 377,613 377,550 377,433 396,345 433,286 470,227 526,197 600,197 628,197 656,203 684,214 711,225 736,244 758,272 780,299 798,336 811,382 824,428 831,486 831,556 Z"
         id="glyph138" /><glyph
         unicode="e"
         horiz-adv-x="1007"
         d="M 586,-20 C 508,-20 438,-8 376,15 313,38 260,73 216,120 172,167 138,226 115,297 92,368 80,451 80,546 80,649 94,736 122,807 149,878 187,935 234,979 281,1022 335,1054 396,1073 457,1092 522,1102 590,1102 675,1102 748,1087 809,1058 869,1028 918,986 957,933 996,880 1024,816 1042,742 1060,667 1069,585 1069,495 L 1069,487 375,487 C 375,442 379,400 387,361 395,322 408,288 426,260 444,231 467,209 496,193 525,176 559,168 600,168 649,168 690,179 721,200 752,221 775,253 788,297 L 1053,274 C 1041,243 1024,211 1003,176 981,141 952,110 916,81 880,52 835,28 782,9 728,-10 663,-20 586,-20 Z M 586,925 C 557,925 531,920 506,911 481,901 459,886 441,865 422,844 407,816 396,783 385,750 378,710 377,663 L 797,663 C 792,750 771,816 734,860 697,903 648,925 586,925 Z"
         id="glyph140" /><glyph
         unicode="c"
         horiz-adv-x="1007"
         d="M 594,-20 C 508,-20 433,-7 369,20 304,47 251,84 208,133 165,182 133,240 112,309 91,377 80,452 80,535 80,625 92,705 115,776 138,846 172,905 216,954 260,1002 314,1039 379,1064 443,1089 516,1102 598,1102 668,1102 730,1092 785,1073 839,1054 886,1028 925,995 964,963 996,924 1021,879 1045,834 1062,786 1071,734 L 788,734 C 780,787 760,830 728,861 696,893 651,909 592,909 517,909 462,878 427,816 392,754 375,664 375,546 375,297 449,172 596,172 649,172 694,188 730,221 766,253 788,302 797,366 L 1079,366 C 1072,315 1057,267 1034,220 1010,174 978,133 938,97 897,62 848,33 791,12 734,-9 668,-20 594,-20 Z"
         id="glyph142" /><glyph
         unicode="a"
         horiz-adv-x="1112"
         d="M 393,-20 C 341,-20 295,-13 254,2 213,16 178,37 149,65 120,93 98,127 83,168 68,208 60,255 60,307 60,371 71,425 94,469 116,513 146,548 185,575 224,602 269,622 321,634 373,647 428,653 487,653 L 720,653 720,709 C 720,748 717,782 710,808 703,835 692,857 679,873 666,890 649,902 630,909 610,916 587,920 562,920 539,920 518,918 500,913 481,909 465,901 452,890 439,879 428,864 420,845 411,826 405,803 402,774 L 109,774 C 117,822 132,866 153,906 174,946 204,981 242,1010 279,1039 326,1062 381,1078 436,1094 500,1102 574,1102 641,1102 701,1094 754,1077 807,1060 851,1036 888,1003 925,970 953,929 972,881 991,833 1001,777 1001,714 L 1001,320 C 1001,295 1002,272 1005,252 1007,232 1011,215 1018,202 1024,188 1033,178 1045,171 1056,164 1071,160 1090,160 1111,160 1132,162 1152,166 L 1152,14 C 1135,10 1120,6 1107,3 1094,0 1080,-3 1067,-5 1054,-7 1040,-9 1025,-10 1010,-11 992,-12 972,-12 901,-12 849,5 816,40 782,75 762,126 755,193 L 749,193 C 712,126 664,73 606,36 547,-1 476,-20 393,-20 Z M 720,499 L 576,499 C 546,499 518,497 491,493 464,490 440,482 420,470 399,459 383,442 371,420 359,397 353,367 353,329 353,277 365,239 389,214 412,189 444,176 483,176 519,176 552,184 581,199 610,214 635,234 656,259 676,284 692,312 703,345 714,377 720,411 720,444 L 720,499 Z"
         id="glyph144" /><glyph
         unicode="T"
         horiz-adv-x="1245"
         d="M 773,1181 L 773,0 478,0 478,1181 23,1181 23,1409 1229,1409 1229,1181 773,1181 Z"
         id="glyph146" /><glyph
         unicode="P"
         horiz-adv-x="1165"
         d="M 1296,963 C 1296,902 1286,844 1266,788 1245,731 1214,681 1172,638 1130,595 1077,560 1012,535 947,509 871,496 782,496 L 432,496 432,0 137,0 137,1409 770,1409 C 860,1409 938,1398 1004,1377 1070,1355 1125,1324 1168,1285 1211,1246 1244,1199 1265,1144 1286,1089 1296,1029 1296,963 Z M 999,958 C 999,1031 977,1086 934,1124 890,1161 824,1180 737,1180 L 432,1180 432,723 745,723 C 789,723 827,729 859,740 890,751 917,767 938,788 959,809 974,834 984,863 994,892 999,923 999,958 Z"
         id="glyph148" /><glyph
         unicode="M"
         horiz-adv-x="1430"
         d="M 1307,0 L 1307,854 C 1307,888 1308,923 1309,959 1310,995 1311,1028 1312,1058 1314,1093 1316,1128 1317,1161 1303,1108 1290,1058 1277,1011 1272,991 1266,970 1260,949 1254,928 1248,907 1243,887 1237,867 1231,848 1226,831 1221,814 1216,799 1212,786 L 958,0 748,0 494,786 C 490,799 486,814 481,831 476,848 470,867 465,887 459,907 453,928 447,949 441,970 435,991 429,1011 416,1058 402,1108 387,1161 389,1122 391,1084 393,1047 394,1015 396,981 397,946 398,911 399,880 399,854 L 399,0 137,0 137,1409 532,1409 784,621 C 791,600 798,575 806,545 813,515 821,486 828,458 836,425 845,391 854,356 863,391 872,424 881,456 885,470 889,484 893,499 897,514 901,528 905,542 909,556 913,569 917,582 921,595 925,606 928,616 L 1176,1409 1569,1409 1569,0 1307,0 Z"
         id="glyph150" /><glyph
         unicode="L"
         horiz-adv-x="1060"
         d="M 137,0 L 137,1409 432,1409 432,228 1188,228 1188,0 137,0 Z"
         id="glyph152" /><glyph
         unicode=":"
         horiz-adv-x="319"
         d="M 197,752 L 197,1034 485,1034 485,752 197,752 Z M 197,0 L 197,281 485,281 485,0 197,0 Z"
         id="glyph154" /><glyph
         unicode="1"
         horiz-adv-x="980"
         d="M 129,0 L 129,209 478,209 478,1170 140,959 140,1180 493,1409 759,1409 759,209 1082,209 1082,0 129,0 Z"
         id="glyph156" /><glyph
         unicode="0"
         horiz-adv-x="980"
         d="M 1055,705 C 1055,570 1043,457 1018,365 993,272 959,198 916,141 872,84 820,43 761,18 701,-7 636,-20 565,-20 494,-20 429,-8 370,17 311,42 260,83 217,140 174,197 141,271 117,364 93,456 81,570 81,705 81,847 93,965 117,1058 140,1151 174,1225 217,1280 260,1335 312,1374 373,1397 433,1419 500,1430 573,1430 642,1430 706,1419 765,1397 824,1374 875,1335 918,1280 961,1225 994,1151 1019,1058 1043,965 1055,847 1055,705 Z M 773,705 C 773,804 769,887 762,952 755,1017 743,1068 727,1107 711,1145 690,1172 665,1187 639,1202 608,1210 571,1210 532,1210 499,1202 472,1187 445,1171 424,1144 408,1105 391,1066 380,1015 373,950 366,885 362,803 362,705 362,608 366,528 373,463 380,398 392,347 408,308 424,269 445,241 471,225 497,209 529,201 567,201 604,201 635,209 661,225 687,241 708,269 725,308 742,347 754,398 762,463 769,528 773,608 773,705 Z"
         id="glyph158" /><glyph
         unicode="$"
         horiz-adv-x="1086"
         d="M 1110,410 C 1110,354 1101,302 1082,255 1063,209 1035,169 996,135 957,101 907,74 846,55 785,35 713,25 629,25 L 629,-152 520,-152 520,22 C 444,22 378,31 322,49 265,67 217,93 178,126 138,158 106,198 82,246 57,293 39,347 27,408 L 283,455 C 288,423 296,394 307,368 317,341 331,318 349,299 367,280 390,264 418,252 445,239 479,231 520,227 L 520,618 C 518,619 513,621 505,623 497,624 492,625 489,625 437,637 386,652 336,670 286,687 242,711 203,742 164,772 132,811 108,857 84,904 72,962 72,1031 72,1092 83,1144 105,1188 127,1232 158,1268 198,1297 237,1326 285,1347 340,1362 395,1377 455,1384 520,1384 L 520,1520 629,1520 629,1384 C 700,1384 761,1376 811,1360 861,1344 903,1321 938,1292 973,1263 1001,1227 1022,1184 1043,1142 1061,1092 1075,1036 L 811,997 C 801,1055 782,1100 753,1132 724,1163 682,1183 629,1190 L 629,838 C 632,837 636,836 640,836 643,836 647,835 651,834 708,821 765,805 820,787 875,769 924,744 967,714 1010,683 1044,643 1071,595 1097,546 1110,485 1110,410 Z M 520,1194 C 485,1191 455,1185 432,1176 408,1167 389,1155 374,1141 359,1126 349,1110 343,1092 337,1073 334,1054 334,1034 334,1005 339,982 348,964 357,945 370,930 387,918 404,906 423,896 446,888 469,879 493,871 520,862 L 520,1194 Z M 850,406 C 850,439 844,466 833,486 822,507 806,524 786,536 766,549 743,560 716,568 689,577 660,585 629,594 L 629,230 C 700,230 754,244 793,273 831,302 850,347 850,406 Z"
         id="glyph160" /><glyph
         unicode=" "
         horiz-adv-x="556"
         id="glyph162" /></font></defs><defs
     id="defs164"><font
       id="EmbeddedFont_4"
       horiz-adv-x="2048"
       horiz-origin-x="0"
       horiz-origin-y="0"
       vert-origin-x="45"
       vert-origin-y="90"
       vert-adv-y="90"><font-face
         font-family="Times New Roman embedded"
         units-per-em="2048"
         font-weight="normal"
         font-style="normal"
         ascent="1826"
         descent="450"
         id="font-face167" /><missing-glyph
         horiz-adv-x="2048"
         d="M 0,0 L 2047,0 2047,2047 0,2047 0,0 Z"
         id="missing-glyph169" /><glyph
         unicode="•"
         horiz-adv-x="504"
         d="M 602,678 C 602,644 596,612 583,583 570,553 553,527 531,505 509,483 483,466 454,453 424,440 392,434 358,434 324,434 292,440 263,453 234,466 208,483 186,505 164,527 147,553 134,583 121,612 115,644 115,678 115,712 121,744 134,774 147,803 164,829 186,851 208,873 234,890 263,903 292,916 324,922 358,922 392,922 424,916 454,903 483,890 509,873 531,851 553,829 570,803 583,774 596,744 602,712 602,678 Z"
         id="glyph171" /><glyph
         unicode="–"
         horiz-adv-x="1085"
         d="M 1038,528 L 1038,426 -14,426 -14,528 1038,528 Z"
         id="glyph173" /><glyph
         unicode="»"
         horiz-adv-x="848"
         d="M 907,430 L 573,74 492,74 719,463 492,852 573,852 907,496 907,430 Z M 498,430 L 163,74 82,74 310,463 82,852 163,852 498,496 498,430 Z"
         id="glyph175" /></font>
</defs>
</svg>
